# This file uses centimeters as units for non-parametric coordinates.

mtllib Rocky.mtl
g default
v -0.575386 0.486726 0.551450
v 0.676025 0.656644 0.650374
v -0.547586 0.535880 -0.548357
v 0.656459 0.663878 -0.697618
v 0.000000 0.000000 1.046469
v 0.667505 0.000000 0.781976
v 0.000000 0.702285 0.735811
v -0.911565 0.000000 0.804818
v 0.000000 1.013677 0.000000
v 0.772793 0.748252 0.000000
v -0.085004 0.767714 -0.826175
v -0.720779 0.762303 0.000000
v 0.075100 0.000000 -1.278649
v 0.910455 0.000000 -0.890414
v -0.832543 0.000000 -0.999815
v 1.125862 0.000000 -0.023078
v -1.066972 0.000000 0.000000
v -0.455783 0.000000 0.911565
v -0.347076 0.715777 0.329004
v -0.718132 0.715777 0.329004
v -0.347076 0.630192 0.678737
v 0.000000 0.911565 0.455783
v -0.455783 0.911565 0.000000
v -0.455783 0.455783 -0.941774
v -0.635403 0.393932 -0.703726
v -0.423077 0.713300 -0.756890
v -0.026919 0.379524 -1.089300
v -0.455783 0.000000 -0.999313
v 0.911565 0.000000 0.455783
v -1.034014 0.000000 -0.583890
v 0.455783 0.000000 0.911565
v 0.455783 0.455783 0.911565
v 0.786594 0.412739 0.697393
v 0.296938 0.591892 0.621970
v 0.000000 0.399551 0.795772
v -0.347076 0.259995 0.784787
v -0.802859 0.259995 0.784787
v 0.455783 0.842595 0.455783
v 0.539180 0.651556 0.378169
v 0.565893 0.911565 0.062519
v 0.455783 0.911565 -0.455783
v 0.746830 0.703361 -0.455783
v 0.307212 0.707454 -0.588798
v 0.000000 0.972725 -0.455783
v -0.455783 0.835246 -0.368035
v -0.772131 0.720128 -0.368035
v 0.565217 0.455783 -0.867172
v 0.704443 0.455783 -0.787942
v 0.455783 0.000000 -0.999313
v 0.911565 0.000000 -0.455783
v 0.911565 0.455783 -0.455783
v 0.980345 0.455783 0.118174
v 0.911565 0.455783 0.455783
v -0.911565 0.000000 0.455783
v -0.802859 0.259995 0.329004
v -0.911565 0.455783 0.000000
v -0.911565 0.455783 -0.368035
v -0.025861 0.000000 -0.102081
vt 0.375000 0.250000
vt 0.625000 0.250000
vt 0.375000 0.500000
vt 0.625000 0.500000
vt 0.875000 0.250000
vt 0.125000 0.250000
vt 0.500000 0.125000
vt 0.625000 0.125000
vt 0.500000 0.250000
vt 0.375000 0.125000
vt 0.500000 0.375000
vt 0.625000 0.375000
vt 0.500000 0.500000
vt 0.375000 0.375000
vt 0.500000 0.625000
vt 0.625000 0.625000
vt 0.375000 0.625000
vt 0.750000 0.125000
vt 0.875000 0.125000
vt 0.750000 0.250000
vt 0.250000 0.125000
vt 0.250000 0.250000
vt 0.125000 0.125000
vt 0.437500 0.125000
vt 0.437500 0.312500
vt 0.375000 0.312500
vt 0.437500 0.250000
vt 0.500000 0.312500
vt 0.437500 0.375000
vt 0.437500 0.562500
vt 0.375000 0.562500
vt 0.437500 0.500000
vt 0.500000 0.562500
vt 0.437500 0.625000
vt 0.687500 0.125000
vt 0.187500 0.125000
vt 0.562500 0.125000
vt 0.562500 0.187500
vt 0.625000 0.187500
vt 0.562500 0.250000
vt 0.500000 0.187500
vt 0.437500 0.187500
vt 0.375000 0.187500
vt 0.562500 0.312500
vt 0.625000 0.312500
vt 0.562500 0.375000
vt 0.562500 0.437500
vt 0.625000 0.437500
vt 0.562500 0.500000
vt 0.500000 0.437500
vt 0.437500 0.437500
vt 0.375000 0.437500
vt 0.562500 0.562500
vt 0.625000 0.562500
vt 0.562500 0.625000
vt 0.812500 0.125000
vt 0.812500 0.187500
vt 0.875000 0.187500
vt 0.812500 0.250000
vt 0.750000 0.187500
vt 0.687500 0.187500
vt 0.687500 0.250000
vt 0.312500 0.125000
vt 0.312500 0.187500
vt 0.312500 0.250000
vt 0.250000 0.187500
vt 0.187500 0.187500
vt 0.187500 0.250000
vt 0.125000 0.187500
vt 0.562500 0.125000
vn -0.212328 0.904799 0.369128
vn -0.212328 0.904799 0.369128
vn -0.212328 0.904799 0.369128
vn -0.212328 0.904799 0.369128
vn -0.394554 0.429584 -0.812271
vn -0.394554 0.429584 -0.812271
vn -0.394554 0.429584 -0.812271
vn -0.394554 0.429584 -0.812271
vn 0.535703 0.008776 0.844361
vn 0.535703 0.008776 0.844361
vn 0.535703 0.008776 0.844361
vn 0.535703 0.008776 0.844361
vn -0.165891 0.236198 0.957440
vn -0.165891 0.236198 0.957440
vn -0.165891 0.236198 0.957440
vn -0.165891 0.236198 0.957440
vn 0.260185 0.624514 0.736401
vn 0.260185 0.624514 0.736401
vn 0.260185 0.624514 0.736401
vn 0.260185 0.624514 0.736401
vn 0.584166 0.802921 -0.118608
vn 0.584166 0.802921 -0.118608
vn 0.584166 0.802921 -0.118608
vn 0.584166 0.802921 -0.118608
vn -0.286090 0.887071 -0.362295
vn -0.286090 0.887071 -0.362295
vn -0.286090 0.887071 -0.362295
vn -0.286090 0.887071 -0.362295
vn 0.293608 0.697883 -0.653264
vn 0.293608 0.697883 -0.653264
vn 0.293608 0.697883 -0.653264
vn 0.293608 0.697883 -0.653264
vn 0.936770 0.240306 -0.254393
vn 0.936770 0.240306 -0.254393
vn 0.936770 0.240306 -0.254393
vn 0.936770 0.240306 -0.254393
vn 0.539248 0.773794 0.332348
vn 0.539248 0.773794 0.332348
vn 0.539248 0.773794 0.332348
vn 0.539248 0.773794 0.332348
vn -0.922603 0.385750 0.000000
vn -0.922603 0.385750 0.000000
vn -0.922603 0.385750 0.000000
vn -0.922603 0.385750 0.000000
vn -0.865177 0.500465 0.031683
vn -0.865177 0.500465 0.031683
vn -0.865177 0.500465 0.031683
vn -0.865177 0.500465 0.031683
vn -0.301502 0.801723 0.516078
vn -0.301502 0.801723 0.516078
vn -0.301502 0.801723 0.516078
vn -0.301502 0.801723 0.516078
vn -0.419260 0.822204 0.384970
vn -0.419260 0.822204 0.384970
vn -0.419260 0.822204 0.384970
vn -0.419260 0.822204 0.384970
vn -0.373963 0.848707 0.373963
vn -0.373963 0.848707 0.373963
vn -0.373963 0.848707 0.373963
vn -0.373963 0.848707 0.373963
vn -0.818199 0.495392 -0.291784
vn -0.818199 0.495392 -0.291784
vn -0.818199 0.495392 -0.291784
vn -0.818199 0.495392 -0.291784
vn -0.212363 0.551403 -0.806757
vn -0.212363 0.551403 -0.806757
vn -0.212363 0.551403 -0.806757
vn -0.212363 0.551403 -0.806757
vn -0.381980 0.218738 -0.897911
vn -0.381981 0.218738 -0.897911
vn -0.381980 0.218738 -0.897911
vn -0.381980 0.218738 -0.897911
vn 0.156518 0.714753 0.681638
vn 0.156518 0.714753 0.681638
vn 0.156518 0.714753 0.681638
vn 0.156518 0.714753 0.681638
vn 0.043470 0.632033 0.773721
vn 0.043470 0.632033 0.773721
vn 0.043470 0.632033 0.773721
vn 0.043470 0.632033 0.773721
vn 0.002768 0.281266 0.959626
vn 0.002768 0.281265 0.959626
vn 0.002768 0.281266 0.959626
vn 0.002768 0.281266 0.959626
vn -0.262892 0.550630 0.792272
vn -0.262892 0.550630 0.792272
vn -0.262892 0.550630 0.792272
vn -0.262892 0.550630 0.792272
vn -0.110481 0.312560 0.943451
vn -0.110481 0.312560 0.943451
vn -0.110481 0.312560 0.943451
vn -0.110481 0.312560 0.943451
vn -0.238910 0.511705 0.825276
vn -0.238910 0.511705 0.825276
vn -0.238910 0.511705 0.825276
vn -0.238910 0.511705 0.825276
vn 0.278251 0.831934 0.480064
vn 0.278251 0.831934 0.480064
vn 0.278251 0.831934 0.480064
vn 0.278251 0.831934 0.480064
vn 0.771645 0.457349 0.442036
vn 0.771645 0.457349 0.442035
vn 0.771645 0.457349 0.442035
vn 0.771645 0.457349 0.442035
vn 0.148592 0.965506 0.213819
vn 0.148592 0.965506 0.213819
vn 0.148592 0.965506 0.213819
vn 0.148592 0.965506 0.213819
vn 0.194251 0.761339 -0.618570
vn 0.194251 0.761339 -0.618570
vn 0.194251 0.761339 -0.618570
vn 0.194251 0.761339 -0.618570
vn 0.287065 0.673844 -0.680829
vn 0.287066 0.673844 -0.680829
vn 0.287066 0.673844 -0.680829
vn 0.287066 0.673844 -0.680829
vn 0.161081 0.985139 -0.059625
vn 0.161081 0.985139 -0.059625
vn 0.161081 0.985139 -0.059625
vn 0.161081 0.985139 -0.059625
vn -0.624216 0.534585 -0.569713
vn -0.624216 0.534584 -0.569713
vn -0.624216 0.534585 -0.569713
vn -0.624216 0.534585 -0.569713
vn -0.411138 0.904052 -0.116854
vn -0.411138 0.904052 -0.116854
vn -0.411138 0.904052 -0.116854
vn -0.411138 0.904052 -0.116854
vn -0.264059 0.954880 -0.135928
vn -0.264059 0.954880 -0.135928
vn -0.264059 0.954880 -0.135928
vn -0.264059 0.954880 -0.135928
vn 0.009057 0.629245 -0.777154
vn 0.009057 0.629245 -0.777154
vn 0.009057 0.629245 -0.777154
vn 0.009057 0.629245 -0.777154
vn 0.290996 0.267263 -0.918636
vn 0.290996 0.267263 -0.918636
vn 0.290996 0.267263 -0.918636
vn 0.290996 0.267263 -0.918636
vn 0.413306 0.323879 -0.851047
vn 0.413306 0.323879 -0.851047
vn 0.413306 0.323879 -0.851047
vn 0.413306 0.323879 -0.851047
vn 0.779730 0.450240 -0.435093
vn 0.779730 0.450240 -0.435093
vn 0.779730 0.450239 -0.435093
vn 0.779730 0.450240 -0.435093
vn 0.829295 0.549742 -0.100266
vn 0.829295 0.549742 -0.100266
vn 0.829295 0.549742 -0.100266
vn 0.829295 0.549742 -0.100266
vn 0.944755 0.191983 -0.265669
vn 0.944755 0.191983 -0.265669
vn 0.944755 0.191983 -0.265669
vn 0.944755 0.191983 -0.265669
vn 0.667075 0.743941 0.039540
vn 0.667075 0.743941 0.039540
vn 0.667075 0.743941 0.039540
vn 0.667075 0.743941 0.039540
vn 0.838992 -0.062397 0.540555
vn 0.838992 -0.062397 0.540555
vn 0.838992 -0.062397 0.540555
vn 0.838992 -0.062397 0.540555
vn 0.940129 0.099570 0.325951
vn 0.940129 0.099570 0.325951
vn 0.940129 0.099570 0.325951
vn 0.940129 0.099570 0.325951
vn 0.000000 -1.000000 0.000000
vn 0.000000 -1.000000 0.000000
vn 0.000000 -1.000000 0.000000
vn -0.808874 0.484094 0.333731
vn -0.808874 0.484094 0.333731
vn -0.808874 0.484094 0.333731
vn -0.808874 0.484094 0.333731
vn -0.904607 0.326944 0.273483
vn -0.904607 0.326944 0.273483
vn -0.904607 0.326944 0.273483
vn -0.904608 0.326944 0.273483
vn -0.844508 0.378686 0.378686
vn -0.844508 0.378686 0.378686
vn -0.844508 0.378686 0.378686
vn -0.844508 0.378686 0.378686
vn -0.467056 0.531475 -0.706677
vn -0.467056 0.531475 -0.706677
vn -0.467056 0.531475 -0.706677
vn -0.467056 0.531475 -0.706677
vn -0.685287 0.547252 -0.480517
vn -0.685287 0.547252 -0.480517
vn -0.685287 0.547252 -0.480517
vn -0.685287 0.547252 -0.480517
vn -0.953821 0.298556 -0.033023
vn -0.953821 0.298556 -0.033023
vn -0.953821 0.298556 -0.033023
vn -0.953821 0.298556 -0.033023
vn 0.000000 -1.000000 0.000000
vn 0.000000 -1.000000 0.000000
vn 0.000000 -1.000000 0.000000
vn 0.000000 -1.000000 0.000000
vn 0.000000 -1.000000 0.000000
vn 0.000000 -1.000000 0.000000
vn 0.000000 -1.000000 0.000000
vn 0.000000 -1.000000 0.000000
vn 0.000000 -1.000000 0.000000
vn 0.000000 -1.000000 0.000000
vn 0.000000 -1.000000 0.000000
vn 0.000000 -1.000000 0.000000
vn 0.000000 -1.000000 0.000000
vn 0.000000 -1.000000 0.000000
s off
g pCube1
usemtl initialShadingGroup
f 23/29/1 12/14/2 20/26/3 19/25/4
f 28/34/5 15/17/6 25/31/7 24/30/8
f 31/37/9 6/8/10 33/39/11 32/38/12
f 35/41/13 7/9/14 21/27/15 36/42/16
f 22/28/17 7/9/18 34/40/19 38/44/20
f 40/46/21 10/12/22 42/48/23 41/47/24
f 44/50/25 11/13/26 26/32/27 45/51/28
f 27/33/29 11/13/30 43/49/31 47/53/32
f 50/56/33 14/19/34 48/58/35 51/57/36
f 52/60/37 10/20/38 39/62/39 53/61/40
f 54/63/41 8/10/42 37/43/43 55/64/44
f 56/66/45 12/22/46 46/68/47 57/67/48
f 20/26/49 1/1/50 21/27/51 19/25/52
f 21/27/53 7/9/54 22/28/55 19/25/56
f 22/28/57 9/11/58 23/29/59 19/25/60
f 25/31/61 3/3/62 26/32/63 24/30/64
f 26/32/65 11/13/66 27/33/67 24/30/68
f 27/33/69 13/15/70 28/34/71 24/30/72
f 33/39/73 2/2/74 34/40/75 32/38/76
f 34/40/77 7/9/78 35/41/79 32/38/80
f 35/41/81 5/7/82 31/37/83 32/38/84
f 21/27/85 1/1/86 37/43/87 36/42/88
f 37/43/89 8/10/90 18/24/91 36/42/92
f 18/24/93 5/7/94 35/41/95 36/42/96
f 34/40/97 2/2/98 39/45/99 38/44/100
f 39/45/101 10/12/102 40/46/103 38/44/104
f 40/46/105 9/11/106 22/28/107 38/44/108
f 42/48/109 4/4/110 43/49/111 41/47/112
f 43/49/113 11/13/114 44/50/115 41/47/116
f 44/50/117 9/11/118 40/46/119 41/47/120
f 26/32/121 3/3/122 46/52/123 45/51/124
f 46/52/125 12/14/126 23/29/127 45/51/128
f 23/29/129 9/11/130 44/50/131 45/51/132
f 43/49/133 4/4/134 48/54/135 47/53/136
f 48/54/137 14/16/138 49/55/139 47/53/140
f 49/55/141 13/15/142 27/33/143 47/53/144
f 48/58/145 4/5/146 42/59/147 51/57/148
f 42/59/149 10/20/150 52/60/151 51/57/152
f 52/60/153 16/18/154 50/56/155 51/57/156
f 39/62/157 2/2/158 33/39/159 53/61/160
f 33/39/161 6/8/162 29/35/163 53/61/164
f 29/35/165 16/18/166 52/60/167 53/61/168
s 1
f 16/18/169 58/70/170 50/56/171
s off
f 37/43/172 1/1/173 20/65/174 55/64/175
f 20/65/176 12/22/177 56/66/178 55/64/179
f 56/66/180 17/21/181 54/63/182 55/64/183
f 46/68/184 3/6/185 25/69/186 57/67/187
f 25/69/188 15/23/189 30/36/190 57/67/191
f 30/36/192 17/21/193 56/66/194 57/67/195
s 1
f 54/63/196 17/21/197 58/70/170
f 58/70/170 17/21/197 30/36/198
f 58/70/170 30/36/198 15/17/199
f 58/70/170 15/17/199 28/34/200
f 58/70/170 28/34/200 13/15/201
f 58/70/170 13/15/201 49/55/202
f 58/70/170 49/55/202 14/19/203
f 58/70/170 14/19/203 50/56/171
f 29/35/204 58/70/170 16/18/169
f 6/8/205 58/70/170 29/35/204
f 31/37/206 58/70/170 6/8/205
f 5/7/207 58/70/170 31/37/206
f 18/24/208 58/70/170 5/7/207
f 8/10/209 58/70/170 18/24/208
f 54/63/196 58/70/170 8/10/209
